<svg xmlns="http://www.w3.org/2000/svg" viewBox="0 0 64 64">
  <path fill="#22d3ee" opacity="0.5" d="M 47 30.2 C 44.5 25 42.6 18.4 41.5 14.6 C 41 13 39.6 13 39 14.3 C 35.8 19 30.6 24.4 24.4 27.8 L 24 29 C 29.5 27.4 35 24.2 38 21 C 38.8 20.2 39.4 20.6 39.6 21.7 C 40.2 24.6 40.8 27.8 41.2 30.2 Z"/>
  <path fill="#22d3ee" d="M 54.6 31.4 C 53 29.2 50.4 28.2 47.6 28.5 C 45.8 28.7 44.4 29.4 43.5 30.4 C 38 31.2 32 32.4 27 33.8 C 24.5 34.5 22.3 35.1 20.3 35.8 C 14.5 37.6 8 40.2 3 43.4 C 8.5 42.4 14.5 41.5 19.5 40.9 C 14 43.6 9 46.6 6 49.8 C 11.5 47.7 17 45.5 21.5 44.2 C 26 42.9 30 42.6 33.5 41.5 C 38 40.1 42 38.3 45 36.5 C 47.5 35.1 50.4 34.1 52.4 33.6 C 53.4 33.3 54.2 32.4 54.6 31.4 Z"/>
  <path fill="#22d3ee" d="M 42.5 30.6 C 39 24 36 15.5 34.2 10.4 C 33.6 8.6 31.9 8.5 31.2 10 C 27 16.5 18.5 24 8.5 28.6 L 8 30 C 15.5 27.6 23.5 22.8 28.2 18.2 C 29.3 17.2 30.1 17.7 30.3 19 C 31 22.6 31.9 27.6 32.5 31.9 Z"/>
  <path fill="#0b1016" d="M 54.6 31.4 C 53 29.2 50.4 28.2 47.6 28.5 C 45.8 28.7 44.4 29.4 43.5 30.4 C 47 30.9 51 31.1 54.6 31.4 Z"/>
  <circle cx="50.6" cy="29.7" r="0.8" fill="#eef2f5"/>
  <path fill="#f43f5e" d="M 54.6 31.4 L 63 34.6 L 53.9 33.5 C 54.2 32.8 54.4 32.1 54.6 31.4 Z"/>
</svg>
